<?xml version="1.0" encoding="utf-8"?>
<svg xmlns="http://www.w3.org/2000/svg" xmlns:xlink="http://www.w3.org/1999/xlink" version= "1.1" width="1084px" height="1445px" viewBox="8 287 1084 1445">
<g id="layer1">
<g style="fill:rgb(0,0,0); fill-opacity:1.0; stroke-linejoin: miter">
<path d="M587.9993,1626.4105C587.9766,1626.5334,587.9661,1626.6089,587.9661,1626.6409L587.9701,1626.6418C587.97797,1626.6077,587.99133,1626.5292,588.00525,1626.4105 Z"/>
</g>
<g style="fill:rgb(0,0,0); fill-opacity:1.0; stroke-linejoin: miter">
<path d="M587.9993,1626.4105C587.9766,1626.5334,587.9661,1626.6089,587.9661,1626.6409C587.97797,1626.6077,587.99133,1626.5292,588.00525,1626.4105 Z"/>
</g>
<g style="fill:rgb(0,0,0); fill-opacity:1.0; stroke-linejoin: miter">
<path d="M587.9993,1626.4105C587.9766,1626.5334,587.9661,1626.6089,587.9661,1626.6409C587.97797,1626.6077,587.99133,1626.5292,588.00525,1626.4105 Z"/>
</g>
<g style="fill:rgb(0,0,0); fill-opacity:1.0; stroke-linejoin: miter">
</g>
<g style="fill:rgb(0,0,0); fill-opacity:1.0; stroke-linejoin: miter">
<path d="M132.8064,1430.7391L132.8064,1430.7391L478.14938,1428.164C478.2888,1428.1628,478.4282,1428.1627,478.56766,1428.1632L478.56766,1428.1632L1042.1741,1430.4775L1011.1222,1485.4602L883.21924,1275.2904C879.72577,1269.5499,877.90027,1262.95,877.9473,1256.2302L877.94727,1256.2355L877.94763,1256.1812L877.94763,1256.1812L877.94806,1256.1267L877.94806,1256.1213C878.82135,1131.5065,879.6947,1006.8458,880.7007,922.19727L880.7008,922.19324L880.7704,916.39233L880.7704,916.39246L880.83704,910.8357L880.837,910.8396C881.758,833.3345,881.3228,797.0045,860.8528,746.5293L860.85284,746.52905C837.98425,690.1389,791.1104,619.25,735.72375,578.6155L735.7237,578.6156C695.82947,549.34705,649.478,534.35315,607.31085,527.2283L607.3103,527.228C592.31506,524.6941,578.0278,523.1865,564.99646,522.36865L564.99646,522.36865C516.5684,519.32886,487.3001,525.8452,454.8996,533.0868C442.36032,535.8894,429.27524,531.83057,420.52325,522.4236C411.77118,513.0165,408.66547,499.67334,412.364,487.3684L412.364,487.3684C425.2401,444.5298,442.3817,381.8955,480.5008,351.93237L480.50104,351.93213C504.64624,332.95312,534.0541,328.14478,560.47736,332.60962L560.4774,332.60962C581.81433,336.21484,602.2345,345.94702,618.74585,360.46924L618.7458,360.469C653.7828,391.28516,668.22064,442.4148,679.24786,478.50073C682.65125,489.6383,680.4848,501.73315,673.4271,510.9967C666.36945,520.26025,655.2836,525.5598,643.6424,525.2351L643.6424,525.2351C563.74524,523.0065,492.5514,521.4536,434.07312,541.078L434.07306,541.078C377.06247,560.2097,328.9355,601.1022,289.77008,648.4575L289.77014,648.4575C252.58475,693.41895,225.77832,740.97644,215.13812,837.81494L215.13812,837.81494C204.08173,938.44116,210.69012,1089.0936,217.60669,1244.3221C217.91278,1251.1923,216.2544,1258.0072,212.8258,1263.9685L212.8258,1263.9685L83.723816,1488.4385L50.80249,1434.2599L131.51428,1430.7719C131.94476,1430.7533,132.37555,1430.7424,132.8064,1430.7391L132.8064,1430.7391 M133.34601,1503.0894L134.63812,1503.0566L53.92633,1506.5447C40.745422,1507.1143,28.299622,1500.4631,21.448425,1489.1882C14.597229,1477.9133,14.427429,1463.8029,21.005066,1452.3662L21.005066,1452.3662L150.107,1227.8962L145.32617,1247.5427C138.51959,1094.7808,131.40497,937.4326,143.21881,829.9127L143.21881,829.9127C155.4491,718.60254,188.10773,657.85376,234.01581,602.3457L234.01581,602.3457C277.94525,549.2302,336.54028,497.4906,411.05457,472.4851L411.0545,472.48486C484.10132,447.97168,569.2307,450.7793,645.65967,452.91113L610.05414,499.64526C596.9926,456.9021,587.34106,429.20312,570.9624,414.79785L570.9623,414.7976C564.4521,409.07178,556.3757,405.29443,548.42303,403.95068L548.4231,403.95068C538.7193,402.31104,530.80023,404.42358,525.2128,408.81543L525.213,408.8152C509.49615,421.16943,497.7079,454.78418,481.65393,508.19507L439.1183,462.47656C473.31873,454.83276,510.65472,446.46313,569.52893,450.1587L569.52893,450.1587C584.7847,451.1162,601.5964,452.88477,619.3658,455.88745L619.36523,455.8872C668.73224,464.22876,726.79395,482.3286,778.5222,520.27905L778.5222,520.2792C847.5482,570.92017,901.495,654.22473,927.90125,719.33826L927.90125,719.33813C954.4515,784.80615,954.0996,834.6549,953.1841,911.69934L953.1841,911.7035L953.11743,917.26025L953.1174,917.2604L953.0477,923.0613L953.04785,923.0571C952.0444,1007.49365,951.1724,1131.9285,950.2985,1256.6284L950.2986,1256.623L950.2982,1256.6775L950.2982,1256.6775L950.2978,1256.7318L945.0258,1237.6769L1072.9288,1447.8466C1079.7393,1459.0376,1079.9675,1473.0361,1073.5253,1484.4431C1067.083,1495.8501,1054.9773,1502.883,1041.877,1502.8293L1041.877,1502.8293L478.27057,1500.5149L478.68884,1500.5142L133.34601,1503.0894 Z"/>
</g>
<g style="fill:rgb(0,0,0); fill-opacity:1.0; stroke-linejoin: miter">
<path d="M694.9346,1463.9822L694.9346,1463.9822L694.9348,1463.9817C702.7236,1445.7686,723.71155,1437.2065,742.0176,1444.774C760.3236,1452.3417,769.1393,1473.2244,761.794,1491.6207L761.794,1491.6207C744.6112,1534.6553,724.0879,1587.7588,684.3296,1625.0498L684.3296,1625.0498C644.01794,1662.8596,586.09546,1683.1179,529.9313,1677.8734L529.9313,1677.8734C508.30243,1675.8538,487.46283,1670.103,468.2607,1661.8912L468.2607,1661.8912C437.2754,1648.6404,409.50912,1628.5388,388.40332,1605.3358L388.40332,1605.3358C354.21823,1567.754,339.02527,1523.2782,326.182,1486.7771C319.5506,1467.9302,329.45312,1447.276,348.30002,1440.6445C367.14688,1434.0131,387.80115,1443.9156,394.43256,1462.7626L394.43256,1462.7626C407.93707,1501.143,419.0915,1531.5481,441.92554,1556.651L441.92554,1556.651C456.0833,1572.2156,475.31097,1586.2158,496.70975,1595.367L496.70975,1595.367C509.82568,1600.976,523.35565,1604.5925,536.6581,1605.8346L536.6581,1605.8347C572.0447,1609.1389,609.5337,1596.0066,634.8325,1572.2778L634.8325,1572.2778C660.6848,1548.0299,675.9719,1511.4458,694.6,1464.7916L761.4591,1492.4307L761.45886,1492.4313C753.6029,1510.8015,732.3424,1519.325,713.9722,1511.4689C695.60205,1503.6129,687.07855,1482.3524,694.9346,1463.9822 Z"/>
</g>
<g style="fill:rgb(0,0,0); fill-opacity:1.0; stroke-linejoin: miter">
<path d="M1459.0513,960.22784L1459.0513,960.22784L1459.0532,960.2315C1466.9558,978.58185,1458.4863,999.8641,1440.1362,1007.7668C1421.7861,1015.6695,1400.5042,1007.20013,1392.6016,988.8498L1392.6016,988.8498L1392.5996,988.8461C1384.697,970.49603,1393.1665,949.2139,1411.5166,941.3112C1429.8667,933.4085,1451.1487,941.87775,1459.0513,960.22784 Z"/>
</g>
</g>
</svg>